<svg id="图层_1" data-name="图层 1" xmlns="http://www.w3.org/2000/svg" viewBox="0 0 48 48"><defs><style>.cls-1{stroke:#000;stroke-miterlimit:10;}</style></defs><path class="cls-1" d="M24,46.4A22.4,22.4,0,1,1,46.4,24,22.47,22.47,0,0,1,24,46.4ZM24,4A20,20,0,1,0,44,24,20,20,0,0,0,24,4Z"/><path class="cls-1" d="M45.2,25.2H2.8a1.2,1.2,0,0,1,0-2.4H45.2a1.2,1.2,0,0,1,0,2.4Z"/><path class="cls-1" d="M24,46.4c-5.52,0-9.68-9.6-9.68-22.4S18.48,1.6,24,1.6s9.68,9.6,9.68,22.4S29.52,46.4,24,46.4ZM24,4c-3.44,0-7.28,8.24-7.28,20S20.56,44,24,44s7.28-8.24,7.28-20S27.44,4,24,4Z"/><path class="cls-1" d="M24,16.72A22.2,22.2,0,0,1,8.16,10.16,1.19,1.19,0,0,1,9.84,8.48,19.91,19.91,0,0,0,24,14.32,19.91,19.91,0,0,0,38.16,8.48a1.19,1.19,0,0,1,1.68,1.68A22.2,22.2,0,0,1,24,16.72Zm15,23.2a1.2,1.2,0,0,1-.88-.32,20.09,20.09,0,0,0-28.32,0,1.19,1.19,0,1,1-1.68-1.68,22.4,22.4,0,0,1,31.68,0,1.16,1.16,0,0,1,0,1.68A1.22,1.22,0,0,1,39,39.92Z"/></svg>