<?xml version="1.0" encoding="utf-8"?>
<!-- Generator: Adobe Illustrator 24.1.0, SVG Export Plug-In . SVG Version: 6.00 Build 0)  -->
<svg version="1.1" id="图层_1" xmlns="http://www.w3.org/2000/svg" xmlns:xlink="http://www.w3.org/1999/xlink" x="0px" y="0px"
	 viewBox="0 0 48 48" style="enable-background:new 0 0 48 48;" xml:space="preserve">
<style type="text/css">
	.st0{fill:#CA5F2E;stroke:#DD632A;stroke-width:5;stroke-miterlimit:10;}
</style>
<path class="st0" d="M42.5,10.6h-37c-0.5,0-1-0.4-1-1c0-0.5,0.4-1,1-1h37c0.5,0,1,0.4,1,1C43.5,10.2,43.1,10.6,42.5,10.6z M42.5,25
	h-37c-0.5,0-1-0.4-1-1s0.4-1,1-1h37c0.5,0,1,0.4,1,1S43.1,25,42.5,25z M42.5,39.4h-37c-0.5,0-1-0.4-1-1c0-0.5,0.4-1,1-1h37
	c0.5,0,1,0.4,1,1C43.5,39,43.1,39.4,42.5,39.4z"/>
</svg>
