<svg id="图层_1" data-name="图层 1" xmlns="http://www.w3.org/2000/svg" viewBox="0 0 48 48"><defs><style>.cls-1{fill:#231815;}.cls-2{fill:#fff;}</style></defs><path class="cls-1" d="M.91,19.92A13.23,13.23,0,0,0,6.64,30.51a1.12,1.12,0,0,1,.46.91,1.09,1.09,0,0,1-.06.36c-.28,1.06-.72,2.75-.74,2.83a1.43,1.43,0,0,0-.09.41.54.54,0,0,0,.55.55.6.6,0,0,0,.32-.1l3.63-2.12a1.71,1.71,0,0,1,.88-.26,1.61,1.61,0,0,1,.49.07,19.12,19.12,0,0,0,5.41.77c9.16,0,16.58-6.27,16.58-14s-7.42-14-16.58-14S.91,12.19.91,19.92"/><path class="cls-1" d="M19.08,30.32C19.08,36.76,25.26,42,32.89,42a16.15,16.15,0,0,0,4.5-.63,1.41,1.41,0,0,1,.41-.07,1.45,1.45,0,0,1,.73.22l3,1.77a.47.47,0,0,0,.26.08.45.45,0,0,0,.46-.46,1.28,1.28,0,0,0-.07-.34l-.62-2.36a.93.93,0,0,1,.33-1,11,11,0,0,0,4.78-8.82c0-6.44-6.19-11.66-13.81-11.66S19.08,23.88,19.08,30.32"/><path class="cls-2" d="M35.79,26.76a1.85,1.85,0,1,0,1.85-1.87,1.87,1.87,0,0,0-1.85,1.87"/><path class="cls-2" d="M26.55,26.76a1.85,1.85,0,1,0,1.85-1.87,1.87,1.87,0,0,0-1.85,1.87"/><path class="cls-2" d="M14.16,15.42A2.22,2.22,0,1,1,12,13.17a2.23,2.23,0,0,1,2.21,2.25"/><path class="cls-2" d="M23,13.17a2.25,2.25,0,1,0,2.21,2.25A2.23,2.23,0,0,0,23,13.17Z"/></svg>