<?xml version="1.0" encoding="utf-8"?>
<!-- Generator: Adobe Illustrator 24.1.0, SVG Export Plug-In . SVG Version: 6.00 Build 0)  -->
<svg version="1.1" id="图层_1" xmlns="http://www.w3.org/2000/svg" xmlns:xlink="http://www.w3.org/1999/xlink" x="0px" y="0px"
	 viewBox="0 0 48 48" style="enable-background:new 0 0 48 48;" xml:space="preserve">
<style type="text/css">
	.st0{fill:#637792;}
</style>
<path class="st0" d="M31.7,17.9c-0.2,0-0.4,0.1-0.5,0.3c0,0.1,0,0.1,0,0.2c0.3,1.5,0.8,4.3,1,6.3c0.4,3.4-3,6.5-5.6,7.4
	c-4.1,1.4-8.9-2-10-5.9c-1.2-4.6,1.3-10.2,5.6-12c0.5-0.2,0.9-0.4,1.4-0.6c1-0.4,0.5-1.2,0.3-1.8c-0.4-1.8-0.7-3.7,0.3-5.4
	c1.4-2.6,5.1-4.6,8-3.3c1.2,0.5,2.5,1.1,3.6,1.7c1,0.6,1.4,1.8,1.1,3c-0.6,1.6-2.2,2-3.8,1c-0.6-0.4-1.2-0.7-1.8-1
	c-0.8-0.4-1.9-0.1-2.3,0.7c-0.1,0.3-0.2,0.6-0.2,0.9c0,0.6,0.1,1.3,0.2,1.9c0.1,0.8,0.7,1.4,1.4,1.6c1,0.2,2.1,0.5,3.1,0.9
	c4.1,1.8,7,4.7,8.3,9.1c2.5,8.1-2.2,16.2-9.2,19.3c-3.8,1.8-8.1,2.3-12.2,1.4c-5.9-1.4-10.8-5.5-13.2-11c-1.9-4.3-2.4-8.7-0.9-13.3
	c2-6.2,6-10.4,12-12.8c1.1-0.4,2.3,0,2.9,1c0.7,1,0.4,2.4-0.6,3.1c0,0,0,0,0,0c-0.9,0.5-1.7,1-2.6,1.4c-3.3,1.7-5.4,4.5-6.7,7.9
	c-2.6,6.7,1,14.6,6.9,17.6c5.4,2.8,12.8,1.7,16.8-3c2.4-2.7,3.3-6.4,2.4-10C36.8,22,33.7,18.4,31.7,17.9z M26.1,18.6
	c-0.1-0.3-0.4-0.6-0.8-0.5c0,0,0,0-0.1,0c-3.5,1.2-5,4.9-3.3,8c0.6,1.1,1.9,1.7,3.2,1.4c1.5-0.4,2.5-1.5,2.3-2.9
	C27.1,22.6,26.6,20.6,26.1,18.6z"/>
</svg>
